<svg xmlns="http://www.w3.org/2000/svg" width="31.665" height="35.603" viewBox="0 0 31.665 35.603">
  <g id="hourglass-svgrepo-com" transform="translate(-38.1 -11)">
    <path id="Pfad_1" data-name="Pfad 1" d="M68.282,43.638H66.851c-.538-5.29-3.786-12-8.385-14.837,4.6-2.841,7.847-9.54,8.385-14.837h1.431a1.482,1.482,0,1,0,0-2.964h-28.7a1.482,1.482,0,1,0,0,2.964h1.431c.538,5.29,3.786,12,8.385,14.837-4.6,2.841-7.847,9.547-8.385,14.837H39.582a1.482,1.482,0,1,0,0,2.964H68.275a1.482,1.482,0,0,0,.007-2.964ZM44.007,13.964h19.85c-.7,5.558-5.043,13.238-9.925,13.238S44.7,19.523,44.007,13.964ZM53.932,30.4c4.883,0,9.228,7.68,9.925,13.238H44.007C44.7,38.08,49.05,30.4,53.932,30.4Z" fill="#fff"/>
  </g>
</svg>
